<?xml version="1.0" standalone="no"?>
<!DOCTYPE svg PUBLIC "-//W3C//DTD SVG 20010904//EN"
 "http://www.w3.org/TR/2001/REC-SVG-20010904/DTD/svg10.dtd">
<svg version="1.0" xmlns="http://www.w3.org/2000/svg"
 width="260.000000pt" height="260.000000pt" viewBox="0 0 260.000000 260.000000"
 preserveAspectRatio="xMidYMid meet">
<metadata>
Created by potrace 1.11, written by Peter Selinger 2001-2013
</metadata>
<g transform="translate(0.000000,260.000000) scale(0.100000,-0.100000)"
fill="#000000" stroke="none">
<path d="M1150 2470 c-302 -40 -487 -123 -720 -325 -76 -66 -193 -195 -221
-245 -11 -19 -32 -55 -46 -80 -30 -53 -60 -134 -78 -210 -7 -30 -19 -75 -26
-100 -21 -70 -18 -307 4 -405 40 -173 93 -298 184 -428 49 -72 169 -187 266
-257 45 -33 94 -68 108 -80 42 -31 157 -86 239 -114 269 -89 612 -90 878 -1
87 29 205 87 245 121 16 13 32 24 37 24 16 0 154 115 231 192 200 199 303 459
304 763 0 132 -10 192 -57 345 -62 199 -180 357 -398 531 -176 141 -327 211
-543 253 -104 20 -315 28 -407 16z m362 -66 c226 -35 396 -117 588 -279 191
-163 281 -290 349 -493 37 -109 57 -312 41 -419 -40 -280 -116 -440 -295 -619
-96 -95 -177 -158 -300 -232 -106 -64 -231 -107 -395 -137 -214 -39 -553 7
-716 95 -32 18 -72 39 -88 48 -141 74 -371 283 -436 397 -55 98 -100 189 -100
206 0 9 -8 43 -19 75 -10 33 -24 109 -31 169 -11 95 -10 127 4 230 9 66 23
138 31 160 8 22 14 46 15 53 0 18 62 147 102 212 34 57 208 241 268 284 166
120 270 176 397 214 166 51 400 65 585 36z"/>
<path d="M492 1941 c-15 -9 -12 -29 18 -126 10 -33 28 -91 39 -130 22 -78 94
-316 116 -385 21 -65 85 -286 100 -345 8 -27 18 -63 24 -80 5 -16 22 -70 38
-119 15 -50 33 -91 39 -93 6 -2 18 15 27 38 15 39 18 41 47 35 17 -3 48 -20
70 -37 56 -45 197 -89 285 -89 104 0 203 36 288 106 77 62 82 62 117 -13 18
-38 24 -44 34 -32 15 15 56 130 81 224 27 102 114 392 169 565 18 58 45 146
60 195 15 50 35 117 45 150 39 122 36 145 -18 145 -54 0 -62 -17 -161 -340
-22 -74 -49 -157 -59 -185 -10 -27 -31 -90 -46 -138 -55 -171 -64 -128 -65
299 0 267 -3 350 -13 356 -19 12 -71 10 -85 -4 -9 -9 -12 -96 -12 -329 0 -271
-2 -318 -15 -329 -9 -7 -17 -11 -19 -9 -6 7 -103 242 -141 344 -33 89 -36 96
-55 140 -10 22 -30 69 -45 105 -15 36 -30 69 -35 73 -10 11 -50 -1 -50 -14 0
-6 -19 -56 -43 -112 -24 -56 -54 -129 -67 -162 -12 -33 -31 -79 -41 -102 -11
-23 -19 -46 -19 -52 0 -5 -7 -22 -15 -38 -8 -15 -29 -62 -46 -103 -33 -79 -69
-127 -88 -116 -8 5 -11 112 -11 356 0 377 3 360 -54 360 -45 0 -46 -5 -46
-362 0 -226 -3 -338 -10 -338 -6 0 -13 8 -17 18 -3 9 -11 24 -18 32 -11 14
-91 257 -131 395 -9 33 -25 83 -35 110 -10 28 -23 69 -29 91 -7 30 -17 43 -33
48 -31 8 -60 7 -75 -3z m865 -401 c18 -47 38 -94 43 -105 5 -11 21 -51 35 -90
33 -89 53 -137 104 -255 55 -126 58 -181 15 -242 -22 -30 -52 -54 -103 -80
-67 -35 -79 -38 -157 -38 -111 0 -191 31 -259 100 l-49 49 18 58 c10 32 27 76
37 98 11 22 19 44 19 49 0 5 26 70 59 145 82 191 151 359 151 369 0 14 24 33
39 30 8 -2 29 -41 48 -88z"/>
</g>
</svg>
